<svg width="20" height="24" viewBox="0 0 20 24" fill="none" xmlns="http://www.w3.org/2000/svg">
<path d="M10 11.4286C10.7576 11.4286 11.5078 11.2808 12.2078 10.9936C12.9077 10.7064 13.5437 10.2855 14.0795 9.7549C14.6152 9.22428 15.0401 8.59434 15.3301 7.90105C15.62 7.20776 15.7692 6.4647 15.7692 5.71429C15.7692 4.96388 15.62 4.22081 15.3301 3.52752C15.0401 2.83423 14.6152 2.2043 14.0795 1.67368C13.5437 1.14306 12.9077 0.722144 12.2078 0.434974C11.5078 0.147804 10.7576 -1.1182e-08 10 0C9.24237 -1.1182e-08 8.49217 0.147804 7.79221 0.434974C7.09226 0.722144 6.45626 1.14306 5.92054 1.67368C5.38482 2.2043 4.95986 2.83423 4.66993 3.52752C4.37999 4.22081 4.23077 4.96388 4.23077 5.71429C4.23077 6.4647 4.37999 7.20776 4.66993 7.90105C4.95986 8.59434 5.38482 9.22428 5.92054 9.7549C6.45626 10.2855 7.09226 10.7064 7.79221 10.9936C8.49217 11.2808 9.24237 11.4286 10 11.4286ZM8.57212 14.0952C3.83654 14.0952 0 17.8952 0 22.5857C0 23.3667 0.639423 24 1.42788 24H18.5721C19.3606 24 20 23.3667 20 22.5857C20 17.8952 16.1635 14.0952 11.4279 14.0952H8.57212Z" fill="#9E9E9E"/>
</svg>