<svg width="27" height="24" viewBox="0 0 27 24" fill="none" xmlns="http://www.w3.org/2000/svg">
<path d="M12.3648 3.26036C13.1191 5.55881 12.3489 7.8787 10.6451 8.44661C8.94129 9.01453 6.94734 7.61081 6.19302 5.31236C5.43869 3.01391 6.20884 0.694027 7.91266 0.126112C9.61648 -0.441804 11.6104 0.961912 12.3648 3.26036ZM5.29099 8.92345C6.28797 10.6593 6.04532 12.6792 4.75294 13.4293C3.46057 14.1793 1.60377 13.381 0.612076 11.6452C-0.379622 9.90926 -0.142247 7.88941 1.15013 7.13933C2.4425 6.38926 4.29929 7.18755 5.29099 8.92345ZM3.6452 19.7781C6.40929 12.2077 11.3203 10.2843 13.4989 10.2843C15.6774 10.2843 20.5885 12.2077 23.3526 19.7781C23.5425 20.2978 23.6269 20.855 23.6269 21.4122V21.498C23.6269 22.8802 22.5244 24 21.1634 24C20.5568 24 19.9555 23.925 19.3699 23.775L14.7279 22.5963C13.9209 22.3927 13.0769 22.3927 12.2698 22.5963L7.62781 23.775C7.04229 23.925 6.44094 24 5.83432 24C4.47337 24 3.3709 22.8802 3.3709 21.498V21.4122C3.3709 20.855 3.4553 20.2978 3.6452 19.7781ZM22.2448 13.4293C20.9524 12.6792 20.7098 10.6593 21.7068 8.92345C22.7037 7.18755 24.5553 6.38926 25.8476 7.13933C27.14 7.88941 27.3827 9.90926 26.3857 11.6452C25.3887 13.381 23.5372 14.1793 22.2448 13.4293ZM16.3526 8.44661C14.6488 7.8787 13.8787 5.55881 14.633 3.26036C15.3873 0.961912 17.3813 -0.441804 19.0851 0.126112C20.7889 0.694027 21.5591 3.01391 20.8047 5.31236C20.0504 7.61081 18.0565 9.01453 16.3526 8.44661Z" fill="#9E9E9E"/>
</svg>